<?xml version="1.0" standalone="no"?>
<!DOCTYPE svg PUBLIC "-//W3C//DTD SVG 20010904//EN"
 "http://www.w3.org/TR/2001/REC-SVG-20010904/DTD/svg10.dtd">
<svg version="1.0" xmlns="http://www.w3.org/2000/svg"
 width="4096.000000pt" height="4096.000000pt" viewBox="0 0 4096.000000 4096.000000"
 preserveAspectRatio="xMidYMid meet">

<g transform="translate(0.000000,4096.000000) scale(0.100000,-0.100000)"
fill="#051931" stroke="none">

<rect width="100%" height="100%" fill="#FFFFFF"/>

<path d="M0 20480 l0 -20480 20480 0 20480 0 0 20480 0 20480 -20480 0 -20480
0 0 -20480z m15428 12651 c318 -27 373 -64 407 -273 36 -226 38 -496 42 -5210
2 -2540 7 -4618 11 -4618 4 0 192 186 417 413 226 226 1279 1283 2340 2348
1671 1675 3205 3217 5735 5764 339 341 789 796 1001 1010 211 215 405 406 429
426 25 21 74 53 110 73 68 37 121 46 370 61 528 33 4034 33 4287 1 230 -30
259 -48 287 -183 30 -140 36 -444 36 -1773 l0 -1325 -1298 -1300 c-2237 -2241
-3825 -3838 -6169 -6205 -361 -364 -349 -352 -888 -905 -835 -856 -1135 -1171
-1135 -1192 0 -60 1189 -1260 3935 -3968 407 -401 976 -964 1265 -1251 289
-287 719 -712 955 -945 237 -233 736 -727 1110 -1099 374 -372 1027 -1020
1451 -1440 l772 -765 1 -1255 c0 -709 -3 -1316 -9 -1395 -15 -226 -41 -280
-141 -296 -201 -32 -740 -40 -2864 -45 l-2060 -5 -765 752 c-725 712 -991 975
-1750 1724 -179 176 -705 696 -1170 1155 -1127 1113 -1303 1286 -1655 1620
-479 456 -1354 1316 -2965 2915 -1445 1434 -1601 1588 -1606 1583 -6 -7 -23
-4126 -24 -5798 0 -1930 -22 -3363 -56 -3645 -23 -192 -43 -225 -149 -253
-163 -44 -356 -47 -2655 -47 -2287 0 -2560 5 -2756 45 -89 18 -109 32 -122 82
-17 67 -21 102 -27 268 -3 85 -8 191 -11 235 -10 194 -15 490 -24 1740 -12
1685 -13 16391 0 19205 5 1163 10 2311 10 2550 0 239 5 588 12 775 l12 340 30
28 c46 43 76 55 172 67 214 26 4803 36 5102 11z"/>
</g>
</svg>
